<?xml version="1.0" standalone="no"?>
<!DOCTYPE svg PUBLIC "-//W3C//DTD SVG 20010904//EN"
 "http://www.w3.org/TR/2001/REC-SVG-20010904/DTD/svg10.dtd">
<svg version="1.0" xmlns="http://www.w3.org/2000/svg"
 width="1586.000000pt" height="2462.000000pt" viewBox="0 0 1586.000000 2462.000000"
 preserveAspectRatio="xMidYMid meet">

<g transform="translate(0.000000,2462.000000) scale(0.100000,-0.100000)"
fill="#000000" stroke="none">
<path d="M7560 24599 c-263 -18 -555 -74 -786 -150 -401 -132 -930 -456 -1294
-794 -374 -346 -522 -509 -854 -935 -147 -188 -333 -476 -460 -711 -166 -308
-337 -837 -412 -1275 -35 -206 -28 -561 16 -788 41 -207 171 -524 292 -706 39
-58 52 -70 132 -112 150 -80 163 -90 175 -147 32 -151 43 -354 37 -686 -10
-472 15 -699 93 -853 35 -69 77 -109 126 -118 45 -8 51 -2 60 52 3 26 25 108
47 183 23 75 46 156 53 181 10 36 32 65 103 138 112 114 148 180 168 314 17
111 13 180 -27 378 -36 185 -45 245 -64 420 -16 150 -20 526 -7 548 7 10 22
10 78 -2 131 -28 319 -40 649 -42 182 -1 347 -3 368 -3 21 0 49 4 62 9 16 6
35 5 56 -2 26 -9 35 -8 57 11 70 56 153 104 217 124 61 19 91 22 242 21 164
-1 171 0 162 18 -6 11 -6 18 0 18 5 0 12 8 16 18 5 14 4 15 -6 5 -7 -7 -18
-13 -23 -13 -6 1 -1 9 12 20 13 10 23 23 22 27 0 4 3 8 8 8 4 1 17 4 30 9 12
4 32 9 45 10 12 2 30 6 40 10 48 17 51 17 36 0 -11 -13 -11 -15 2 -14 35 5 47
0 42 -20 -4 -14 0 -20 10 -20 8 0 28 -13 44 -30 15 -16 32 -30 37 -30 5 0 23
-11 41 -24 l32 -24 239 4 c454 10 488 9 629 -10 135 -19 243 -25 341 -21 63 2
119 7 124 10 5 3 11 1 14 -4 4 -5 18 -8 33 -6 14 1 41 -4 60 -11 25 -11 39
-12 53 -4 16 9 22 8 26 -5 3 -8 11 -15 17 -15 6 0 19 -7 28 -16 17 -16 21 -15
54 11 165 125 437 144 641 45 84 -41 142 -95 210 -195 50 -74 61 -85 86 -85
16 0 39 -5 51 -12 28 -15 60 -18 68 -6 7 11 59 -11 59 -25 0 -5 7 -7 15 -4 8
4 17 2 20 -3 3 -5 19 -7 35 -3 23 4 30 2 30 -10 0 -14 27 -30 55 -32 6 0 24
-8 41 -17 17 -10 34 -14 38 -11 3 4 6 0 6 -8 0 -8 12 -22 25 -32 21 -15 25
-15 25 -3 0 8 -8 20 -17 25 -17 10 -17 10 0 11 9 0 22 -11 28 -24 7 -14 22
-27 35 -30 13 -4 24 -14 24 -22 0 -10 6 -14 15 -10 8 3 15 1 15 -4 0 -6 11
-10 25 -10 17 0 28 -7 34 -22 5 -13 11 -22 15 -20 17 6 37 1 35 -10 -5 -43 21
-84 47 -74 8 3 14 1 14 -5 0 -6 4 -8 9 -5 4 3 17 -1 27 -9 18 -14 18 -14 -6
-15 -23 -1 -23 -2 -5 -10 14 -6 15 -9 5 -10 -10 -1 -9 -4 5 -9 11 -5 20 -14
20 -22 0 -7 9 -15 20 -16 15 -2 16 -1 5 5 -8 4 -16 17 -17 30 -2 19 -1 21 11
10 8 -7 12 -16 10 -19 -2 -3 3 -6 10 -6 8 0 12 9 9 21 -3 20 -3 19 8 -1 7 -13
19 -23 27 -23 12 0 12 2 1 17 -13 15 -12 15 11 3 l25 -13 -22 -10 c-28 -12
-39 -37 -13 -30 13 3 18 0 17 -14 -1 -10 -6 -21 -12 -25 -6 -5 -5 -8 4 -8 7 0
11 -6 7 -15 -3 -8 2 -19 12 -24 12 -8 13 -10 3 -11 -8 0 -11 -3 -8 -7 4 -3 2
-12 -4 -20 -6 -7 -8 -13 -4 -13 4 0 14 8 22 18 10 13 13 13 11 2 -2 -8 -10
-20 -18 -27 -11 -9 -12 -12 -2 -13 9 0 10 -5 4 -16 -5 -9 -7 -25 -5 -35 3 -12
0 -19 -8 -19 -11 0 -11 -2 1 -9 9 -6 13 -23 12 -48 -2 -21 -3 -46 -3 -56 0
-10 -4 -30 -9 -43 -6 -15 -6 -34 0 -49 7 -18 6 -25 -3 -25 -6 -1 -1 -8 13 -16
15 -9 17 -13 6 -10 -18 6 -18 5 -2 -19 9 -14 14 -30 11 -35 -3 -5 -1 -11 3
-14 13 -8 7 -47 -9 -57 -8 -5 -9 -9 -2 -9 6 0 10 -11 8 -25 -1 -14 2 -25 6
-25 5 0 9 -5 9 -11 0 -5 -5 -7 -11 -3 -6 3 -4 -4 4 -17 17 -25 17 -26 17 -58
0 -11 38 -57 87 -105 47 -47 82 -86 78 -86 -4 0 -1 -8 8 -18 9 -10 36 -61 60
-113 23 -52 49 -105 57 -119 8 -14 13 -31 11 -39 -1 -7 2 -10 8 -7 5 4 12 2
16 -4 4 -6 10 -8 15 -5 4 3 12 -1 18 -8 11 -14 48 -119 56 -157 3 -14 12 -50
20 -80 39 -141 46 -534 12 -704 -13 -64 -14 -81 -4 -88 22 -14 220 -9 283 7
138 35 272 125 381 257 193 234 362 543 477 874 159 457 143 973 -40 1283 -52
88 -135 162 -213 191 -65 24 -170 30 -262 15 l-41 -7 42 73 c177 315 259 530
298 789 22 148 25 535 4 660 -72 450 -235 964 -410 1295 -116 218 -284 484
-420 663 -345 453 -498 624 -861 960 -309 287 -633 511 -1012 697 -331 164
-694 255 -1128 285 -167 11 -552 11 -720 -1z m535 -769 c532 -59 963 -372
1132 -820 104 -276 90 -629 -37 -885 -46 -94 -125 -201 -175 -239 l-36 -28
-192 31 c-609 96 -1212 91 -1779 -14 l-133 -24 -48 47 c-108 105 -185 243
-235 419 -25 92 -27 111 -27 293 0 182 2 202 28 294 56 204 161 381 312 531
154 153 323 254 540 324 142 46 205 59 340 70 146 12 209 12 310 1z m-1125
-4020 c0 -5 -2 -10 -4 -10 -3 0 -8 5 -11 10 -3 6 -1 10 4 10 6 0 11 -4 11 -10z
m2920 -490 c0 -5 -2 -10 -4 -10 -3 0 -8 5 -11 10 -3 6 -1 10 4 10 6 0 11 -4
11 -10z"/>
<path d="M7442 23508 c-47 -60 -567 -1093 -597 -1186 -9 -29 13 -53 105 -122
84 -62 240 -160 255 -160 6 0 26 48 44 108 68 225 274 877 278 882 6 6 39 -31
225 -258 83 -100 159 -187 169 -193 16 -8 41 17 181 188 191 232 225 270 231
263 4 -5 221 -698 282 -902 17 -56 31 -88 40 -88 29 0 249 143 334 218 l44 38
-67 144 c-76 163 -369 743 -479 946 -48 90 -77 134 -89 134 -9 0 -117 -106
-240 -235 -123 -129 -225 -235 -228 -235 -3 0 -105 106 -228 235 -123 129
-229 235 -237 235 -7 0 -17 -6 -23 -12z"/>
<path d="M8877 19375 c-69 -18 -87 -26 -150 -74 -67 -50 -132 -137 -151 -201
-26 -86 -18 -81 30 19 94 194 245 280 423 241 129 -28 251 -133 321 -278 24
-48 46 -96 50 -107 4 -11 12 -32 19 -47 60 -152 65 -465 10 -681 -13 -52 -48
-79 -74 -57 -6 5 -14 8 -16 6 -2 -3 -15 4 -29 14 l-24 18 22 134 c27 165 28
228 2 361 -40 208 -124 346 -238 394 -79 33 -196 11 -269 -51 -75 -63 -149
-207 -178 -348 -16 -72 -20 -240 -9 -322 l7 -46 91 -44 c50 -24 127 -68 171
-96 98 -64 250 -212 312 -302 26 -38 50 -68 53 -68 12 0 125 123 147 160 33
54 79 185 102 293 73 336 -17 759 -203 951 -112 114 -278 166 -419 131z m114
-390 c61 -32 89 -125 51 -171 -25 -31 -55 -44 -102 -44 -81 0 -131 90 -94 167
30 60 86 78 145 48z"/>
<path d="M6780 19364 l-35 -14 35 8 c19 4 71 7 115 7 65 0 90 -5 138 -27 88
-41 166 -122 221 -229 50 -98 54 -101 30 -19 -35 118 -155 242 -267 275 -63
19 -190 18 -237 -1z"/>
<path d="M6655 19312 c-147 -93 -243 -269 -295 -539 -24 -127 -27 -313 -5
-437 19 -111 74 -273 116 -342 31 -50 135 -163 141 -153 144 219 299 354 531
465 79 37 98 50 104 72 4 15 7 88 7 162 -1 145 -18 231 -67 340 -32 71 -106
168 -151 199 -241 161 -475 -73 -493 -494 -6 -141 18 -281 69 -402 30 -73 31
-110 3 -99 -8 3 -15 1 -15 -5 0 -6 -4 -8 -9 -4 -5 3 -16 -3 -23 -13 -7 -10
-23 -24 -35 -30 -19 -11 -25 -8 -46 20 -31 42 -74 151 -95 242 -12 53 -16 121
-16 266 -1 171 2 207 23 290 58 234 156 391 293 469 29 17 46 31 38 31 -8 0
-42 -17 -75 -38z m335 -342 c69 -74 38 -187 -56 -204 -91 -18 -159 60 -134
153 15 55 50 81 112 81 43 0 54 -4 78 -30z"/>
<path d="M10606 18833 c-6 -14 -5 -15 5 -6 7 7 10 15 7 18 -3 3 -9 -2 -12 -12z"/>
<path d="M4222 18288 c-19 -19 -15 -26 26 -38 20 -7 52 -21 70 -32 17 -11 32
-17 32 -13 0 11 -37 55 -42 50 -3 -3 -15 6 -28 20 -26 28 -40 31 -58 13z"/>
<path d="M10687 18289 c7 -7 15 -10 18 -7 3 3 -2 9 -12 12 -14 6 -15 5 -6 -5z"/>
<path d="M5401 17918 c-5 -13 -20 -52 -35 -88 -71 -180 -108 -447 -88 -635 21
-191 83 -324 213 -455 70 -71 192 -159 263 -191 41 -18 46 -24 60 -77 28 -102
91 -211 186 -322 180 -210 241 -242 610 -321 25 -5 77 -8 115 -7 61 2 79 -1
135 -29 148 -70 347 -120 620 -153 96 -12 234 -30 305 -40 72 -10 191 -22 265
-25 74 -3 164 -10 200 -16 36 -5 75 -11 88 -12 12 -1 22 -5 22 -9 0 -4 9 -5
20 -3 11 2 20 0 20 -6 0 -5 -6 -9 -12 -9 -7 0 -1 -8 15 -18 15 -10 25 -21 22
-24 -3 -3 1 -11 9 -17 8 -7 12 -20 9 -28 -5 -11 -3 -14 6 -9 7 5 1 -11 -14
-34 -15 -23 -22 -39 -17 -36 6 3 5 -5 -1 -19 -7 -14 -26 -30 -45 -36 -18 -6
-30 -15 -27 -20 4 -5 -1 -6 -10 -3 -10 4 -24 -2 -36 -15 -11 -12 -24 -19 -28
-17 -4 3 -7 -5 -7 -17 1 -17 -4 -22 -22 -21 -12 1 -21 -1 -18 -3 12 -12 -21
-30 -46 -26 -17 3 -28 0 -28 -8 0 -7 -11 -10 -30 -7 -30 5 -41 -6 -17 -15 6
-3 2 -6 -11 -6 -15 -1 -21 3 -16 11 5 7 3 8 -7 2 -24 -15 -122 -5 -136 13 -12
15 -13 15 -13 1 0 -9 -7 -18 -15 -22 -30 -11 -13 -74 29 -108 12 -10 26 -22
32 -27 7 -5 15 -7 18 -4 3 4 6 1 6 -6 0 -7 7 -10 18 -6 11 3 29 -3 43 -13 13
-11 30 -17 38 -14 9 3 11 0 6 -9 -5 -8 -5 -11 0 -7 4 4 15 2 23 -5 13 -10 14
-9 7 3 -7 12 -6 13 7 3 8 -7 18 -10 21 -6 4 3 7 2 7 -3 0 -5 9 -10 20 -10 11
0 20 4 20 8 0 4 8 12 18 17 14 7 18 6 18 -9 0 -12 -5 -16 -16 -12 -8 3 -12 2
-8 -3 4 -4 28 -11 53 -15 37 -6 45 -4 45 9 1 14 2 13 11 -2 6 -9 15 -15 20
-12 5 4 12 -7 15 -24 4 -17 10 -28 15 -26 4 3 13 -4 19 -15 6 -11 7 -19 3 -18
-4 2 -8 -2 -8 -7 0 -5 3 -9 8 -8 4 2 7 -1 7 -6 0 -5 3 -17 7 -27 4 -12 3 -15
-5 -10 -7 4 -12 1 -12 -9 0 -8 -11 -20 -24 -25 -13 -5 -27 -13 -30 -18 -3 -6
-15 -8 -26 -5 -12 3 -20 0 -20 -7 0 -7 -7 -10 -15 -6 -8 3 -15 1 -15 -5 0 -6
-5 -7 -12 -3 -8 5 -9 2 -5 -9 5 -13 2 -15 -18 -7 -19 7 -27 5 -34 -8 -6 -9
-11 -13 -11 -9 0 5 -16 0 -36 -12 -41 -24 -48 -26 -38 -8 6 9 5 9 -7 0 -8 -6
-28 -14 -44 -17 -17 -2 -32 -5 -35 -6 -3 -1 -13 -1 -24 0 -10 1 -16 -2 -13 -7
3 -4 -9 -8 -26 -7 -18 1 -35 -3 -38 -8 -3 -5 -31 -11 -60 -12 -30 -2 -64 -6
-76 -10 -12 -4 -24 -2 -28 5 -6 8 -9 8 -15 -1 -6 -10 -40 -13 -92 -8 -7 0 -28
-2 -47 -7 -18 -4 -31 -3 -28 1 3 5 -34 9 -81 9 -48 -1 -92 3 -97 7 -6 4 -38 8
-72 10 -34 2 -59 6 -56 11 5 8 5 8 -47 12 -19 1 -35 3 -35 5 0 1 -10 4 -22 5
-12 1 -30 6 -40 10 -10 5 -27 9 -38 10 -11 0 -25 4 -32 8 -6 4 -24 9 -40 11
-61 10 -216 55 -270 79 -13 6 -26 8 -29 4 -7 -7 -83 33 -172 90 -29 19 -130
72 -225 118 -124 61 -185 97 -219 129 -27 25 -48 40 -48 34 0 -7 -7 -3 -16 8
-15 18 -15 18 -10 0 6 -16 4 -17 -9 -6 -8 7 -15 19 -15 28 0 8 -3 13 -6 9 -7
-7 -44 29 -45 46 0 6 -4 3 -9 -8 -7 -16 -9 -16 -9 -4 -1 9 -12 20 -26 23 -14
4 -25 11 -25 16 0 6 -6 10 -13 10 -8 0 -22 9 -32 20 -10 12 -25 18 -32 16 -8
-3 -16 1 -20 10 -3 8 -12 13 -20 10 -7 -3 -22 3 -33 14 -11 11 -29 20 -39 20
-10 0 -22 7 -25 16 -5 13 -9 14 -21 4 -12 -10 -15 -10 -15 0 0 7 -7 10 -15 6
-8 -3 -15 0 -15 6 0 7 -5 6 -15 -2 -11 -9 -15 -9 -15 -1 0 7 -8 11 -17 9 -10
-2 -18 3 -18 12 0 9 -10 15 -25 15 -14 0 -31 4 -37 8 -7 5 -13 6 -13 3 0 -17
258 -170 435 -259 49 -24 49 -25 25 -35 -102 -41 -227 -82 -250 -82 -39 0
-143 -38 -157 -57 -7 -9 -13 -26 -13 -37 0 -18 -23 -30 -138 -75 -486 -190
-762 -374 -1201 -806 -112 -110 -311 -321 -441 -470 -131 -148 -312 -354 -401
-456 -90 -102 -220 -252 -289 -334 -69 -82 -181 -214 -250 -294 -267 -310
-557 -689 -843 -1101 l-157 -225 203 -6 c220 -7 285 -15 481 -58 334 -74 626
-212 908 -428 54 -41 101 -80 105 -87 4 -6 8 -31 10 -56 1 -25 4 -64 6 -87 3
-24 1 -43 -4 -43 -4 0 -13 -17 -19 -37 -14 -43 -94 -124 -155 -156 -22 -12
-42 -21 -45 -20 -3 0 -32 4 -65 8 l-60 7 46 -49 c26 -27 50 -60 54 -74 4 -13
17 -46 30 -74 20 -43 33 -75 40 -95 1 -3 4 -12 7 -20 20 -54 69 -243 73 -285
8 -66 42 -198 67 -254 18 -42 33 -89 100 -301 11 -36 20 -75 20 -87 0 -13 4
-23 8 -23 4 0 7 -8 7 -17 -1 -10 2 -41 7 -68 13 -91 15 -109 16 -195 1 -77
-16 -200 -30 -217 -2 -2 -3 -6 -4 -10 -1 -5 -7 -24 -15 -43 -7 -19 -16 -44
-21 -55 -4 -11 -17 -41 -29 -68 -11 -26 -21 -55 -21 -65 0 -10 -7 -28 -16 -40
-8 -12 -13 -22 -9 -22 3 0 -3 -12 -12 -27 -10 -15 -16 -27 -13 -28 8 0 -63
-175 -72 -175 -4 0 -8 -6 -8 -12 0 -17 -50 -138 -84 -205 -14 -29 -26 -57 -26
-63 0 -11 -58 -109 -77 -128 -7 -7 -13 -18 -13 -23 0 -5 -18 -27 -40 -49 -22
-22 -40 -37 -40 -34 0 4 -50 -39 -92 -79 -10 -9 -21 -17 -26 -17 -4 0 -16 -11
-26 -25 -10 -13 -22 -22 -27 -19 -5 3 -9 1 -9 -4 0 -5 -27 -22 -60 -38 -33
-16 -60 -32 -60 -36 0 -4 -9 -5 -19 -3 -11 2 -25 -3 -31 -11 -7 -7 -16 -11
-21 -8 -5 3 -9 0 -9 -7 0 -7 -11 -2 -25 11 -29 27 -55 102 -92 270 -26 117
-27 140 -28 375 -1 342 -23 440 -110 487 -19 11 -19 10 -2 -13 83 -115 103
-196 94 -371 -8 -157 -49 -328 -79 -328 -4 0 -8 -6 -8 -13 0 -7 -10 -14 -22
-14 -13 -1 -24 -7 -26 -13 -2 -5 -10 -10 -17 -10 -8 0 -20 -10 -26 -23 -12
-22 -47 -52 -62 -52 -4 0 -12 -6 -16 -14 -5 -8 -16 -11 -24 -8 -9 3 -21 -1
-27 -9 -7 -8 -19 -14 -27 -14 -8 0 -12 -4 -9 -9 3 -4 -6 -7 -19 -5 -14 1 -25
-3 -25 -9 0 -5 -3 -7 -7 -4 -3 4 -11 3 -17 -2 -17 -14 -110 -31 -134 -24 -12
3 -22 1 -22 -4 0 -8 -21 -13 -67 -13 -13 0 -23 -4 -23 -9 0 -4 -21 -7 -47 -6
-27 2 -52 -1 -58 -5 -5 -4 -40 -7 -78 -6 -39 0 -67 -3 -67 -9 0 -6 -3 -5 -8 1
-4 6 -17 10 -30 9 -13 -1 -26 4 -30 10 -4 6 -29 17 -55 25 -26 7 -59 21 -71
31 -25 19 -110 59 -127 59 -5 0 2 -17 16 -37 25 -38 34 -93 15 -93 -6 0 -22
-11 -36 -25 -26 -26 -60 -37 -107 -36 -16 1 -26 -2 -23 -7 6 -10 -80 -5 -134
8 -62 13 -65 15 -77 30 -7 8 -13 12 -13 8 0 -3 -25 7 -55 22 -55 28 -63 28
-45 0 13 -21 -4 -37 -61 -51 -29 -8 -49 -18 -49 -26 0 -8 -4 -12 -9 -9 -14 9
-21 -21 -7 -33 25 -21 132 -41 216 -41 65 0 107 -7 175 -27 85 -27 100 -28
290 -28 221 0 308 13 439 64 42 17 102 31 146 35 41 4 82 9 90 11 11 4 24 -14
45 -62 39 -91 110 -163 190 -193 81 -31 253 -32 365 -2 192 52 394 168 536
308 139 137 261 345 382 654 162 413 197 609 153 875 -34 201 -100 540 -127
647 -13 53 -24 101 -24 106 0 5 15 13 33 16 52 10 150 60 186 97 98 98 126
292 66 458 l-24 65 152 225 c83 124 169 253 191 286 21 33 69 100 105 148 72
97 81 96 62 -5 -6 -29 -16 -179 -23 -333 -10 -243 -9 -310 5 -505 23 -316 59
-558 127 -850 69 -301 71 -325 40 -600 -45 -405 -231 -1544 -350 -2145 -74
-377 -124 -642 -175 -930 -141 -798 -332 -1678 -429 -1981 -55 -168 -88 -222
-174 -282 -81 -56 -112 -99 -133 -179 l-16 -65 -119 -48 c-356 -142 -560 -295
-731 -552 -136 -203 -210 -394 -265 -683 -19 -103 -22 -152 -22 -350 0 -210 2
-241 27 -355 36 -170 83 -265 175 -351 37 -36 90 -77 117 -93 28 -16 51 -29
52 -30 0 -1 6 -62 13 -136 7 -74 17 -141 22 -148 6 -7 38 -25 72 -41 317 -150
1248 -207 2062 -126 161 16 236 30 459 87 295 75 485 170 646 325 l66 63 94
-16 c110 -19 171 -15 324 21 249 58 457 141 499 198 19 26 21 40 18 168 l-3
140 56 61 c133 143 211 336 234 576 16 172 -6 317 -71 466 l-30 68 27 28 c34
35 65 135 65 208 0 75 -24 196 -52 263 -20 48 -22 75 -26 250 -4 219 12 395
73 794 41 270 91 609 150 1030 71 498 138 892 206 1203 17 75 46 211 65 302
109 519 193 827 237 868 22 21 31 22 237 22 206 0 215 -1 237 -22 44 -41 128
-349 237 -868 19 -91 48 -227 65 -302 59 -271 157 -829 195 -1118 37 -278 113
-800 171 -1178 51 -336 67 -520 63 -731 -4 -176 -6 -202 -27 -251 -26 -64 -51
-192 -51 -267 0 -68 32 -169 66 -204 l26 -28 -36 -85 c-55 -126 -70 -221 -63
-396 8 -223 55 -380 161 -539 25 -36 63 -84 85 -106 l41 -39 0 -136 c0 -116 3
-139 20 -167 39 -64 189 -128 450 -193 204 -51 253 -56 369 -35 l93 16 67 -64
c109 -106 285 -210 451 -269 46 -16 169 -48 417 -108 50 -12 233 -34 428 -52
190 -17 951 -17 1145 0 340 31 559 73 712 137 81 34 88 39 98 73 5 21 10 53
10 73 0 20 3 70 6 111 l7 74 48 28 c66 37 165 130 204 191 44 69 70 143 97
277 20 99 23 142 23 343 -1 194 -4 248 -23 345 -60 320 -151 535 -324 765
-154 204 -352 341 -682 470 l-110 43 -11 54 c-19 91 -48 130 -147 197 -59 39
-91 81 -123 158 -73 180 -206 733 -344 1428 -38 191 -69 361 -161 870 -46 255
-80 432 -145 760 -50 249 -58 291 -154 865 -141 839 -195 1211 -207 1440 -7
124 -3 156 56 410 103 444 147 866 135 1285 -3 131 -11 273 -16 315 -20 155
-21 170 -13 170 17 -1 79 -89 401 -568 l116 -173 20 33 c81 135 265 320 469
471 356 265 622 377 1093 463 51 9 180 19 297 22 l208 7 -143 205 c-247 355
-504 701 -663 891 -191 229 -628 742 -754 884 -73 83 -240 272 -370 420 -254
288 -567 606 -742 752 -144 120 -357 271 -476 338 -104 58 -328 159 -479 215
-85 31 -93 36 -93 61 0 14 -8 33 -17 41 -21 17 -115 48 -149 48 -18 0 -131 37
-264 86 -8 3 39 33 117 74 252 132 376 217 530 364 56 54 103 101 103 105 0 3
-11 6 -24 6 -13 0 -22 -3 -20 -6 2 -4 -3 -10 -12 -13 -8 -3 -12 -2 -9 3 3 5 1
12 -5 16 -5 3 -10 2 -10 -3 0 -11 -57 -36 -77 -35 -7 0 -13 -4 -13 -9 0 -6 -7
-7 -16 -4 -8 3 -24 1 -34 -4 -13 -7 -20 -6 -22 2 -3 7 -13 2 -28 -13 -16 -16
-21 -19 -17 -7 4 12 2 15 -8 11 -8 -3 -12 -10 -8 -17 3 -6 -4 -2 -17 9 -13 11
-20 14 -15 6 6 -11 2 -13 -19 -9 -15 3 -33 0 -39 -7 -7 -7 -33 -11 -61 -9 -27
1 -55 -3 -62 -9 -33 -30 -42 -35 -48 -30 -3 3 -12 0 -21 -7 -9 -8 -15 -8 -15
-2 0 6 5 14 10 17 6 3 10 11 10 16 0 14 -24 -11 -32 -33 -7 -17 -23 -19 -47
-4 -11 7 -13 5 -8 -7 9 -23 -17 -41 -33 -22 -14 17 -32 11 -24 -9 3 -7 -1 -13
-8 -13 -25 -1 -43 -8 -56 -23 -11 -13 -11 -11 -2 8 11 22 -2 33 -15 12 -4 -7
-12 -7 -25 0 -25 14 -30 13 -30 -6 0 -9 -5 -12 -12 -8 -7 4 -10 4 -6 -1 4 -4
0 -14 -8 -22 -13 -14 -17 -13 -29 3 -11 15 -14 16 -15 4 0 -13 -1 -13 -10 0
-8 12 -11 13 -19 1 -6 -10 -10 -10 -16 -1 -5 8 -11 6 -22 -7 -13 -17 -14 -17
-9 0 6 19 -10 24 -17 5 -3 -8 -6 -5 -6 5 -1 11 -6 15 -13 11 -7 -4 -8 -3 -4 4
4 7 1 12 -8 12 -34 0 4 64 39 65 5 0 10 7 11 15 0 8 -1 10 -3 3 -2 -7 -11 -9
-19 -6 -8 3 -14 0 -14 -6 0 -6 -9 -11 -20 -11 -13 0 -20 7 -20 20 0 13 5 18
15 14 10 -4 15 0 15 14 0 13 6 19 18 18 12 -1 16 5 14 24 -1 17 1 21 7 11 7
-10 12 -9 23 8 12 17 20 20 38 13 17 -6 20 -11 11 -17 -8 -4 -16 -2 -21 5 -5
9 -9 9 -14 1 -11 -17 22 -25 39 -11 14 12 13 16 -6 37 -13 12 -17 23 -11 23 7
0 12 -4 12 -8 0 -4 9 -8 19 -8 11 0 18 3 16 7 -8 11 26 49 38 43 7 -4 9 -4 5
1 -4 4 -3 16 3 27 7 14 14 16 23 9 8 -7 12 -5 12 8 0 21 -16 21 -42 1 -18 -14
-18 -14 -4 4 8 11 14 21 13 23 -11 14 18 53 39 53 6 0 0 -8 -12 -18 -22 -18
-20 -50 2 -36 6 4 14 0 19 -7 7 -11 9 -10 9 4 0 9 -7 17 -15 17 -8 0 -15 5
-15 11 0 6 7 8 16 5 13 -5 15 -1 12 24 -3 23 -1 30 9 26 18 -7 17 9 -2 24 -8
7 -15 18 -15 24 0 6 7 2 15 -8 8 -11 15 -15 15 -9 0 12 37 25 42 14 2 -4 11 1
21 11 17 18 16 18 -7 14 -23 -4 -24 -3 -14 14 9 14 16 16 25 8 9 -7 13 -7 13
1 0 7 6 9 13 6 6 -4 1 3 -13 14 -22 18 -23 21 -6 21 11 0 16 5 13 14 -4 10 1
12 16 9 15 -3 18 -2 9 5 -10 7 -10 11 3 22 10 8 15 9 15 1 0 -6 4 -11 10 -11
12 0 9 22 -5 33 -6 5 0 7 13 4 18 -4 21 -3 12 8 -8 10 -4 12 20 10 17 -1 29 0
26 3 -8 7 15 33 24 27 4 -2 17 14 29 35 23 41 36 49 44 28 4 -10 6 -10 6 0 1
7 -6 20 -14 28 -8 9 -15 20 -15 27 0 6 7 2 16 -9 15 -19 15 -19 9 3 -4 16 1
24 24 34 17 8 33 24 36 37 4 16 11 22 22 18 11 -4 14 -2 9 9 -3 8 0 15 6 15 7
0 7 4 -1 14 -10 12 -8 13 10 9 15 -4 20 -3 15 5 -5 8 -2 10 9 6 9 -4 15 -3 14
2 -4 21 2 34 15 34 8 0 17 -6 19 -12 3 -8 6 -6 6 5 1 16 -11 22 -34 17 -5 -1
-6 2 -2 7 5 4 16 8 25 8 10 0 16 7 16 18 -1 9 4 17 11 17 7 0 18 7 26 16 10
13 10 17 -2 26 -12 8 -11 9 2 5 9 -3 28 5 43 18 24 21 25 24 9 28 -11 3 -8 5
10 6 16 0 26 5 22 11 -3 6 1 10 9 10 8 0 18 5 21 10 4 7 -3 9 -19 6 -14 -3
-26 -1 -26 3 0 5 12 9 26 9 29 0 44 16 44 50 0 12 6 25 14 28 8 3 12 12 9 21
-4 9 1 19 10 25 10 5 17 14 17 20 0 6 7 19 16 29 13 14 13 21 3 41 -6 13 -8
20 -4 16 4 -4 17 5 30 20 17 19 20 31 13 39 -7 9 -5 15 7 19 11 5 13 9 6 14
-8 4 -5 15 9 33 15 19 17 27 8 27 -10 0 -10 2 1 9 7 5 14 23 16 42 1 18 7 35
14 37 6 2 11 10 11 18 0 9 -4 13 -8 10 -5 -3 -9 1 -9 9 0 8 5 11 10 8 6 -4 7
-1 2 8 -12 19 -15 59 -5 59 5 0 9 8 10 18 0 9 2 41 3 71 6 100 -51 268 -122
360 -17 23 -20 23 -49 9 l-30 -16 -30 92 c-65 199 -85 220 -134 143 -77 -121
-258 -271 -431 -356 -99 -48 -290 -113 -396 -135 -68 -14 -75 -13 -110 4 -81
41 -76 48 -78 -119 -1 -167 -17 -249 -77 -390 -57 -136 -120 -226 -240 -346
-247 -246 -550 -391 -919 -440 -392 -51 -794 43 -1124 264 -182 122 -369 329
-438 486 -63 142 -95 283 -95 423 0 45 -2 82 -4 82 -35 0 -250 51 -344 82
-304 98 -497 226 -651 431 -47 61 -66 70 -80 35z m5149 -1258 c-8 -5 -17 -7
-19 -4 -3 3 1 9 9 14 8 5 17 7 19 4 3 -3 -1 -9 -9 -14z m-396 -458 c3 -5 -1
-9 -9 -9 -8 0 -12 4 -9 9 3 4 7 8 9 8 2 0 6 -4 9 -8z m-54 -72 c0 -5 -7 -7
-15 -4 -8 4 -12 10 -9 15 6 11 24 2 24 -11z m-165 -160 c3 -5 1 -10 -4 -10 -6
0 -11 5 -11 10 0 6 2 10 4 10 3 0 8 -4 11 -10z m-25 -24 c0 -3 -4 -8 -10 -11
-5 -3 -10 -1 -10 4 0 6 5 11 10 11 6 0 10 -2 10 -4z m-2836 -113 c82 -55 155
-87 238 -104 66 -15 60 -30 -9 -23 -136 13 -414 94 -443 129 -14 17 6 57 44
87 20 16 22 15 56 -10 19 -15 70 -51 114 -79z m2715 -109 c-6 -8 -15 -12 -18
-8 -3 4 0 9 7 11 6 3 9 10 6 15 -4 7 -2 8 5 4 9 -6 9 -11 0 -22z m406 -182
c-8 -8 -25 10 -19 20 4 6 9 5 15 -3 4 -7 6 -15 4 -17z m-608 -14 c-3 -8 -6 -5
-6 6 -1 11 2 17 5 13 3 -3 4 -12 1 -19z m7 -53 c4 -10 -1 -15 -16 -15 -17 0
-18 2 -8 15 7 8 14 15 15 15 2 0 5 -7 9 -15z m-79 -13 c-3 -3 -11 0 -18 7 -9
10 -8 11 6 5 10 -3 15 -9 12 -12z m-1578 -328 c-3 -3 -12 -4 -19 -1 -8 3 -5 6
6 6 11 1 17 -2 13 -5z m-1760 -1770 c89 -33 172 -124 203 -223 27 -85 27 -227
0 -339 -20 -83 -57 -178 -66 -169 -9 9 -64 -47 -64 -66 0 -9 -7 -20 -15 -23
-8 -4 -15 -11 -15 -18 0 -6 -20 -33 -45 -60 -25 -27 -45 -53 -45 -57 0 -5 -13
-15 -29 -24 -16 -8 -35 -20 -43 -27 -28 -26 -148 -76 -198 -82 -8 -1 -28 -8
-45 -15 -16 -7 -39 -14 -50 -15 -11 -1 -33 -8 -50 -15 -66 -29 -201 37 -271
132 -54 72 -81 145 -99 261 -33 226 33 427 194 586 121 120 247 172 441 183
60 3 145 -10 197 -29z m3844 11 c159 -34 321 -153 407 -301 77 -134 106 -307
78 -468 -9 -50 -24 -101 -33 -115 -19 -31 -146 -155 -160 -158 -49 -10 -64
-10 -69 -1 -4 6 0 14 7 19 10 7 5 8 -12 4 -18 -5 -28 -2 -32 8 -4 10 1 13 18
11 17 -1 22 2 18 13 -3 8 -9 11 -12 6 -3 -5 -19 -10 -34 -11 -15 -1 -36 -6
-45 -11 -9 -5 -41 -12 -71 -15 -79 -9 -144 -27 -163 -44 -10 -8 -18 -11 -18
-7 0 5 -5 4 -12 -3 -34 -34 -103 4 -204 109 -143 151 -213 315 -230 539 -16
211 88 379 265 426 64 18 216 17 302 -1z m-6747 -10642 c9 4 16 3 16 -2 0 -5
14 -7 31 -5 17 2 36 1 43 -3 6 -4 20 -8 31 -9 11 0 47 -9 80 -19 33 -10 63
-18 68 -17 4 1 7 -3 7 -8 0 -5 3 -9 8 -9 4 1 23 -4 42 -12 19 -7 40 -12 45
-10 6 1 7 -1 3 -5 -9 -9 54 -44 66 -36 5 3 6 0 2 -6 -4 -7 -2 -12 3 -12 6 0
10 -5 9 -12 -2 -7 2 -12 8 -13 6 0 17 -7 25 -15 9 -8 32 -26 52 -40 20 -14 37
-31 37 -38 0 -8 5 -10 12 -6 8 5 9 2 5 -9 -4 -10 -2 -16 6 -14 7 1 11 -4 9
-11 -1 -6 4 -11 10 -10 7 2 12 -3 10 -10 -1 -7 5 -15 13 -18 13 -5 13 -9 3
-22 -9 -11 -9 -14 -1 -9 13 8 36 -26 38 -57 1 -11 7 -22 12 -23 6 -2 9 -13 6
-23 -3 -11 0 -20 6 -20 5 0 8 -6 5 -14 -3 -8 -1 -17 5 -21 6 -3 11 -11 11 -16
0 -6 -4 -7 -10 -4 -13 8 -13 -11 0 -34 6 -12 5 -29 -3 -50 -10 -27 -9 -33 3
-41 8 -5 10 -10 4 -10 -6 0 -11 -10 -11 -22 -1 -60 -4 -79 -12 -74 -4 3 -7 -6
-5 -19 1 -14 -2 -27 -7 -31 -5 -3 -9 -12 -9 -20 0 -13 -13 -46 -44 -114 -23
-51 -105 -152 -118 -144 -4 3 -8 -2 -8 -11 0 -9 -13 -24 -30 -33 -16 -9 -30
-21 -30 -25 0 -5 -4 -5 -10 -2 -5 3 -10 1 -10 -4 0 -6 -7 -11 -15 -11 -9 0
-18 -7 -21 -15 -4 -8 -12 -15 -20 -15 -17 0 -51 -18 -81 -44 -12 -10 -28 -16
-36 -13 -8 3 -32 1 -53 -4 -22 -6 -55 -12 -74 -16 -19 -3 -39 -9 -45 -13 -14
-11 -195 -8 -195 2 0 5 -5 6 -11 2 -6 -3 -15 0 -20 7 -6 10 -9 11 -9 1 0 -9
-5 -9 -17 -2 -26 15 -77 33 -85 32 -5 -1 -8 2 -8 8 0 5 -7 7 -15 4 -8 -4 -15
-1 -15 6 0 6 -4 9 -8 6 -5 -3 -20 6 -35 20 -15 14 -27 22 -27 18 0 -3 -7 -1
-15 6 -8 7 -15 10 -15 6 0 -3 -9 2 -19 11 -11 9 -18 20 -15 25 3 4 -1 5 -8 3
-8 -3 -23 3 -33 13 -11 10 -34 26 -52 37 -18 10 -30 22 -27 27 3 4 0 8 -5 8
-6 0 -20 9 -31 20 -11 11 -20 17 -20 14 0 -4 -7 -1 -15 6 -8 7 -12 16 -9 21 3
5 0 9 -5 9 -6 0 -11 7 -11 15 0 8 -5 15 -10 15 -6 0 -14 8 -17 18 -4 9 -14 23
-22 30 -9 8 -10 11 -3 7 7 -4 12 0 12 10 0 8 -7 18 -15 21 -8 4 -15 14 -15 24
0 10 -9 22 -20 25 -17 5 -18 10 -9 27 9 16 8 19 -1 13 -10 -6 -12 -1 -8 18 3
15 1 24 -3 21 -5 -3 -8 45 -7 106 1 60 5 110 8 110 3 0 7 15 8 32 2 18 9 43
17 55 8 12 15 30 15 40 0 19 66 132 87 148 7 6 23 24 36 41 12 18 47 51 77 75
30 23 57 46 58 51 2 4 8 6 13 2 5 -3 23 4 39 16 17 12 30 18 30 15 0 -3 12 2
28 13 15 10 33 17 39 15 7 -3 27 6 45 18 17 13 28 18 24 11 -10 -16 6 -15 23
1 11 10 12 9 6 -1 -6 -12 -3 -12 16 -2 12 7 52 15 88 17 36 2 68 9 70 15 2 6
6 6 11 -2 4 -7 15 -10 24 -7z m8251 -103 c-4 -7 2 -7 18 -1 14 6 28 7 32 3 3
-4 30 -7 58 -8 29 -1 52 -3 52 -4 0 -1 14 -3 30 -4 17 -1 40 -7 52 -14 15 -8
24 -9 28 -2 5 8 11 7 21 -1 7 -6 21 -9 29 -5 9 3 13 2 10 -4 -3 -6 3 -10 14
-10 12 0 21 -4 21 -10 0 -5 10 -10 23 -10 25 0 49 -13 48 -26 0 -5 5 -9 12 -9
6 0 23 -8 37 -18 13 -9 33 -17 44 -17 11 0 16 -3 13 -7 -9 -8 13 -34 23 -28 5
3 14 -8 22 -25 7 -16 19 -30 26 -30 7 0 17 -10 23 -22 19 -43 36 -68 42 -62 3
3 3 -4 0 -17 -5 -17 -3 -20 8 -14 8 5 11 5 7 1 -4 -5 -2 -20 4 -35 13 -32 20
-139 9 -145 -4 -3 -6 -23 -5 -45 1 -23 -1 -41 -5 -41 -4 0 -7 -8 -8 -17 -1
-10 -7 -31 -14 -48 -7 -16 -11 -34 -10 -39 1 -5 -6 -6 -15 -2 -15 6 -15 4 -3
-11 12 -15 12 -16 -4 -10 -12 4 -16 3 -11 -4 4 -6 3 -14 -2 -18 -10 -7 -25
-30 -53 -81 -10 -19 -28 -44 -40 -54 -12 -11 -21 -24 -21 -31 0 -6 -15 -26
-34 -45 -19 -19 -32 -38 -29 -42 2 -5 -3 -8 -12 -8 -8 0 -20 -11 -25 -25 -5
-14 -13 -25 -17 -25 -5 0 -25 -16 -45 -36 -21 -19 -38 -33 -38 -30 0 3 -15 -8
-32 -25 -18 -16 -38 -29 -45 -29 -7 0 -13 -4 -13 -10 0 -5 -9 -10 -20 -10 -11
0 -20 -5 -20 -12 0 -6 -3 -9 -6 -5 -4 3 -20 -1 -36 -9 -16 -9 -36 -13 -44 -10
-8 3 -13 2 -10 -3 3 -5 -7 -9 -22 -10 -15 0 -45 -4 -67 -7 -67 -11 -169 -11
-182 -2 -7 6 -17 7 -22 4 -12 -8 -62 4 -57 13 2 3 -12 7 -32 8 -20 1 -38 7
-40 12 -2 6 -12 11 -23 11 -10 0 -19 3 -19 8 0 4 -20 15 -45 25 -26 11 -42 23
-38 30 4 6 0 8 -8 5 -17 -7 -61 26 -51 37 4 5 2 5 -5 1 -6 -3 -14 -2 -18 4 -4
6 -11 7 -17 4 -6 -4 -8 -3 -5 3 3 5 -3 17 -14 26 -10 9 -19 14 -19 10 0 -4 -7
2 -16 13 -8 10 -12 12 -8 4 7 -13 5 -13 -9 -1 -9 7 -17 18 -17 23 0 5 -12 21
-26 36 -15 15 -23 21 -20 15 4 -7 4 -13 1 -13 -3 0 -11 13 -16 30 -6 17 -16
27 -22 23 -5 -3 -7 -1 -4 4 4 6 0 16 -8 23 -8 7 -15 23 -15 37 0 13 -4 22 -9
18 -5 -3 -13 5 -17 17 -4 13 -15 34 -25 47 -11 13 -19 30 -19 39 0 8 -8 21
-17 29 -11 9 -12 12 -3 7 9 -4 7 2 -6 17 -23 27 -40 64 -24 54 6 -3 10 -2 10
4 0 5 -6 12 -12 14 -10 4 -9 8 2 16 13 9 12 11 -3 11 -14 0 -17 5 -12 20 5 15
3 18 -9 14 -19 -7 -22 16 -4 34 8 8 8 15 -2 27 -10 12 -10 21 -1 41 6 14 7 23
2 20 -15 -10 -20 33 -5 45 8 6 14 21 14 32 0 11 3 18 6 14 3 -3 23 12 44 33
21 21 47 41 58 44 11 4 23 14 26 22 3 8 10 12 16 9 6 -3 13 0 16 9 3 8 12 12
19 10 8 -3 16 4 20 16 4 12 9 19 12 16 3 -2 26 8 51 24 29 18 49 25 53 19 4
-6 9 -4 13 6 3 9 10 13 16 10 5 -3 10 -1 10 4 0 6 3 10 8 9 4 0 16 2 27 6 11
5 27 10 35 14 8 3 18 4 23 4 4 -1 7 2 7 8 0 5 7 7 15 4 8 -4 15 -1 15 5 0 6 8
11 18 11 10 0 22 3 26 8 4 4 21 8 37 8 16 1 31 3 34 4 3 1 10 4 15 5 6 1 12 4
15 5 9 4 25 7 46 9 13 1 18 5 13 14 -5 9 -4 9 6 0 9 -8 19 -9 32 -2 10 5 18 7
18 4 0 -4 6 -3 12 1 19 12 48 12 48 1 0 -5 7 -4 15 3 8 6 18 9 23 7 4 -3 14
-2 22 4 20 12 33 11 25 -1z m-591 -2311 c-3 -5 1 -9 9 -9 8 0 17 -7 21 -15 3
-8 11 -15 18 -14 10 0 10 2 1 6 -7 2 -13 12 -13 21 0 13 2 14 9 4 10 -17 43
-22 59 -9 9 7 11 6 7 -5 -6 -16 20 -18 43 -4 6 4 12 3 12 -3 0 -5 13 -9 30 -9
16 1 37 -5 46 -13 13 -10 18 -11 21 -2 3 9 14 8 43 -2 21 -7 41 -11 44 -8 3 4
6 1 6 -5 0 -7 9 -12 21 -12 12 0 17 -4 14 -11 -4 -6 -9 -8 -12 -6 -2 3 -16 -1
-29 -8 -17 -8 -37 -10 -59 -5 -24 5 -33 4 -28 -3 4 -7 -2 -8 -18 -2 -13 4 -43
10 -66 12 -29 3 -41 9 -36 17 4 6 0 5 -9 -2 -14 -11 -21 -11 -40 0 -13 7 -25
15 -28 18 -3 3 -14 6 -25 6 -11 1 -31 4 -45 7 -14 3 -31 6 -39 6 -7 1 -11 7
-8 15 6 16 -16 40 -27 29 -13 -13 -35 -11 -29 3 3 8 13 14 23 14 11 0 21 4 25
9 3 6 17 6 35 -1 17 -5 27 -14 24 -19z m-7808 -119 c14 0 19 -12 8 -23 -9 -8
-34 18 -33 35 0 10 2 10 6 1 2 -7 11 -13 19 -13z"/>
<path d="M10268 12393 c13 -3 19 -9 16 -15 -4 -7 -2 -8 5 -4 17 11 3 26 -22
25 -22 -2 -22 -2 1 -6z"/>
<path d="M10752 17204 c9 -3 19 -13 22 -22 3 -12 4 -12 3 3 -1 12 -10 21 -22
22 -15 1 -15 0 -3 -3z"/>
<path d="M10655 16861 c-3 -5 -2 -12 3 -15 5 -3 9 1 9 9 0 17 -3 19 -12 6z"/>
<path d="M4585 16588 c-48 -17 -95 -27 -117 -26 -20 2 -34 0 -32 -4 6 -9 198
-11 230 -2 16 4 20 11 16 30 -2 13 -7 26 -11 28 -3 2 -42 -10 -86 -26z"/>
<path d="M10225 16269 c-11 -17 1 -21 15 -4 8 9 8 15 2 15 -6 0 -14 -5 -17
-11z"/>
<path d="M10006 16013 c-3 -3 -6 -11 -6 -17 0 -6 5 -4 11 4 9 12 10 11 6 -8
-3 -12 -1 -20 4 -16 11 7 12 31 0 38 -4 3 -11 3 -15 -1z"/>
<path d="M9891 15850 c0 -8 4 -22 9 -30 12 -18 12 -2 0 25 -6 13 -9 15 -9 5z"/>
<path d="M9960 15810 c-9 -6 -10 -10 -3 -10 6 0 15 5 18 10 8 12 4 12 -15 0z"/>
<path d="M9991 15514 c0 -11 3 -14 6 -6 3 7 2 16 -1 19 -3 4 -6 -2 -5 -13z"/>
<path d="M9652 15490 c0 -20 4 -30 14 -30 10 0 12 5 7 13 -4 6 -6 20 -5 30 2
9 -1 17 -6 17 -5 0 -9 -13 -10 -30z"/>
<path d="M9920 15485 c-11 -13 -10 -14 4 -9 9 3 16 10 16 15 0 13 -6 11 -20
-6z"/>
<path d="M9680 15486 c0 -2 8 -10 18 -17 15 -13 16 -12 3 4 -13 16 -21 21 -21
13z"/>
<path d="M8375 15320 c-3 -5 -2 -10 4 -10 5 0 13 5 16 10 3 6 2 10 -4 10 -5 0
-13 -4 -16 -10z"/>
<path d="M5730 15316 c0 -2 7 -7 16 -10 8 -3 12 -2 9 4 -6 10 -25 14 -25 6z"/>
<path d="M14516 10945 c1 -40 -2 -45 -27 -50 -15 -4 -30 -13 -33 -21 -3 -9
-11 -12 -17 -8 -7 4 -9 3 -5 -4 3 -6 2 -13 -4 -17 -5 -3 -10 -1 -10 6 0 8 -9
4 -22 -8 -13 -11 -41 -28 -63 -37 -22 -10 -53 -24 -68 -32 -16 -8 -37 -14 -48
-14 -10 0 -19 -4 -19 -9 0 -5 -14 -9 -31 -9 -17 1 -34 -3 -37 -8 -4 -5 -18
-11 -32 -13 -14 -1 -36 -9 -50 -16 -14 -7 -40 -16 -59 -20 -19 -4 -49 -16 -67
-25 -18 -10 -35 -16 -38 -13 -3 4 -6 1 -6 -5 0 -7 -9 -12 -20 -12 -11 0 -20
-4 -20 -9 0 -5 -9 -11 -20 -14 -32 -8 -23 -26 11 -20 53 8 349 -17 454 -38
122 -25 224 -67 290 -118 34 -28 53 -37 61 -30 19 16 47 146 47 218 0 117 -57
262 -131 334 l-37 36 1 -44z"/>
<path d="M13779 10603 c-13 -16 -12 -17 4 -4 16 13 21 21 13 21 -2 0 -10 -8
-17 -17z"/>
<path d="M11962 10103 c-54 -175 -27 -348 69 -441 40 -39 149 -94 192 -96 28
-1 30 2 52 74 12 41 29 92 38 114 10 21 19 49 21 62 4 22 3 23 -16 13 -12 -6
-47 -13 -77 -15 -48 -3 -60 0 -83 21 -16 13 -28 29 -28 35 0 5 -4 10 -8 10 -4
0 -9 11 -10 25 -1 14 -13 42 -27 63 -14 20 -25 42 -25 49 0 7 -3 13 -8 13 -4
0 -12 12 -19 28 -20 46 -36 87 -37 94 -4 27 -16 8 -34 -49z"/>
<path d="M14815 9493 c5 -10 9 -60 11 -112 3 -103 10 -115 62 -109 24 3 27 8
30 44 3 35 -4 52 -48 117 -49 73 -71 97 -55 60z"/>
<path d="M15188 9470 c28 -49 62 -164 62 -214 0 -22 -6 -53 -14 -67 -17 -33
-12 -41 67 -122 258 -265 317 -328 317 -339 0 -8 9 -31 19 -52 11 -21 23 -51
26 -68 4 -16 13 -32 20 -34 9 -4 10 -15 5 -38 -4 -17 -4 -41 -1 -51 6 -18 6
-116 1 -122 -1 -2 -3 -6 -4 -10 -8 -32 -19 -53 -30 -53 -16 0 -71 92 -92 155
-9 28 -20 59 -24 70 -11 30 -31 98 -33 115 -2 8 -6 21 -10 28 -5 6 -5 12 -1
12 4 0 -1 9 -11 20 -19 21 -45 27 -45 10 0 -5 -9 -18 -20 -28 -18 -17 -21 -34
-24 -143 -3 -68 -7 -135 -9 -149 -9 -45 -16 -71 -23 -93 -5 -12 -8 -26 -9 -32
-2 -19 -39 -103 -64 -145 -5 -8 -23 -53 -42 -100 -40 -103 -52 -118 -76 -94
-10 10 -16 18 -14 18 10 2 -35 242 -87 472 -22 99 -98 269 -126 282 -33 14
-56 -19 -61 -91 -8 -108 -12 -133 -28 -164 -9 -17 -14 -33 -11 -36 4 -3 -3
-18 -13 -34 -21 -30 -63 -173 -63 -214 0 -14 -4 -29 -9 -34 -5 -6 -12 -32 -15
-60 -4 -27 -14 -66 -23 -85 -9 -19 -20 -51 -24 -70 -12 -59 -17 -73 -34 -114
-9 -21 -14 -44 -11 -52 3 -7 -1 -20 -9 -28 -8 -7 -12 -16 -9 -19 3 -3 -2 -17
-11 -31 -9 -14 -14 -30 -10 -36 3 -5 1 -10 -5 -10 -6 0 -15 -10 -20 -22 -5
-13 -18 -36 -29 -52 -10 -16 -17 -36 -13 -44 3 -9 1 -13 -5 -9 -6 4 -16 0 -23
-8 -7 -8 -17 -15 -23 -15 -5 0 -16 -8 -24 -17 -8 -10 -12 -13 -9 -7 3 6 -1 11
-8 11 -8 0 -12 -7 -9 -14 3 -8 2 -13 -3 -12 -19 3 -35 -1 -30 -9 2 -4 -14 -6
-36 -4 -28 3 -38 1 -34 -7 5 -7 1 -9 -9 -5 -8 4 -26 -1 -39 -9 -22 -15 -92
-33 -108 -29 -5 1 -8 -3 -8 -10 0 -6 -3 -9 -6 -5 -4 3 -21 1 -38 -6 -17 -7
-38 -12 -46 -12 -8 1 -23 -3 -34 -8 -10 -5 -33 -11 -50 -14 -17 -2 -44 -8 -61
-13 -35 -10 -32 -10 -204 -10 -157 0 -178 7 -257 86 -96 97 -157 237 -184 426
-13 96 -2 253 24 328 7 22 12 40 10 40 -2 0 -16 -23 -31 -51 -16 -29 -34 -63
-41 -76 -17 -31 -22 -56 -28 -163 -3 -47 -12 -109 -20 -137 -8 -29 -15 -71
-17 -93 -1 -22 -5 -40 -9 -40 -5 0 -8 -13 -8 -29 0 -25 -16 -84 -37 -131 -3
-8 -5 -18 -5 -22 1 -5 -2 -8 -7 -8 -5 0 -15 -16 -21 -35 -6 -19 -15 -35 -20
-35 -4 0 -6 -9 -3 -20 3 -11 0 -20 -6 -20 -5 0 -8 -6 -5 -14 3 -9 -6 -22 -23
-33 -15 -9 -30 -20 -33 -23 -7 -7 -49 -11 -138 -12 -75 0 -100 7 -157 48 -16
12 -40 25 -52 28 -13 4 -29 13 -35 19 -7 7 -35 25 -61 41 -48 28 -49 28 -36 4
19 -36 157 -168 230 -220 260 -185 567 -260 766 -187 76 28 150 103 188 193
25 60 30 65 54 61 14 -3 60 -9 101 -15 41 -5 103 -21 138 -35 98 -40 192 -56
382 -62 170 -5 291 5 298 26 2 5 12 7 22 4 12 -3 20 0 20 6 0 7 -5 9 -12 5 -9
-5 -9 -2 1 9 7 9 20 17 27 17 8 0 14 5 14 11 0 6 6 9 14 6 8 -3 16 2 19 15 3
11 10 17 15 14 5 -3 12 4 15 16 4 12 9 19 13 15 4 -4 18 5 31 19 12 14 23 21
23 17 0 -4 9 7 20 25 11 17 22 32 25 32 4 0 3 -5 -1 -12 -5 -7 -3 -8 5 -4 7 5
10 15 7 23 -3 8 -1 11 4 8 6 -3 10 -2 10 4 0 6 9 19 21 30 12 11 18 24 15 30
-3 5 3 12 13 16 18 6 38 40 33 58 -1 4 3 7 9 7 6 0 9 7 5 15 -5 13 5 20 27 16
4 0 7 8 7 18 0 11 5 23 10 26 6 4 8 11 5 16 -4 5 -1 9 4 9 6 0 10 3 10 8 -4
22 4 43 27 77 14 21 23 44 20 52 -3 8 -2 12 3 9 14 -9 31 19 34 52 1 16 5 28
10 25 4 -2 7 3 7 11 0 9 5 16 11 16 6 0 9 6 6 14 -3 8 1 20 9 27 9 7 13 21 11
31 -3 10 -2 18 2 18 4 0 13 17 19 38 11 37 35 113 38 122 1 3 5 15 9 27 4 13
12 20 18 16 6 -4 8 0 4 10 -3 10 -3 17 2 17 4 0 16 30 27 66 10 37 24 69 32
71 10 4 10 8 0 21 -11 13 -11 14 1 7 11 -6 13 -4 8 8 -7 20 1 47 15 47 13 0 1
-65 -16 -93 -8 -12 -29 -67 -46 -122 -65 -205 -80 -243 -141 -373 -22 -47 -49
-112 -60 -146 -32 -96 -139 -306 -187 -366 -26 -32 -68 -69 -103 -90 -32 -19
-59 -39 -59 -43 0 -5 21 -6 48 -3 26 3 78 8 115 11 48 5 75 13 88 26 10 10 25
16 33 13 9 -3 17 3 21 15 4 13 11 18 22 14 11 -4 14 -2 9 5 -4 7 -2 12 4 12 5
0 18 16 27 35 9 19 25 38 36 41 10 3 16 8 13 11 -2 3 6 15 20 28 13 12 24 27
24 34 0 6 4 11 8 11 5 0 14 16 22 35 7 19 19 36 26 39 7 3 16 25 19 50 4 25
11 43 16 40 5 -2 11 6 15 20 3 13 15 27 27 30 12 3 18 8 14 12 -3 4 2 19 13
34 11 15 17 30 14 33 -3 3 4 11 16 17 12 6 23 10 26 8 2 -2 -24 -51 -57 -109
-33 -57 -75 -131 -92 -164 -44 -85 -67 -116 -80 -109 -7 4 -9 4 -5 -1 4 -4 2
-15 -5 -23 -10 -13 -9 -14 8 -4 11 6 45 18 76 26 51 14 135 67 124 78 -3 2 9
17 25 33 17 16 30 34 30 39 0 6 16 31 35 55 19 24 35 47 35 52 0 4 6 14 13 21
24 26 70 91 60 85 -7 -4 -1 13 13 39 13 25 22 49 19 54 -3 5 0 10 6 12 7 2 14
19 16 38 2 19 8 37 13 38 6 2 8 8 5 12 -8 14 20 71 53 109 48 55 55 138 21
261 -33 121 -62 133 -56 24 3 -35 0 -67 -5 -70 -5 -3 -7 -11 -5 -17 2 -7 -2
-18 -10 -25 -7 -8 -11 -18 -7 -23 3 -5 -2 -12 -10 -15 -9 -3 -13 -11 -9 -17 3
-6 1 -7 -6 -3 -7 5 -8 13 -2 24 7 12 5 22 -7 35 -15 17 -14 18 5 23 17 5 20
13 18 50 -1 25 3 47 8 51 6 4 8 0 4 -11 -4 -10 -3 -15 3 -11 6 3 10 21 10 39
0 19 7 39 15 46 16 13 20 31 8 29 -21 -3 -26 2 -13 12 11 8 12 12 2 16 -6 2
-10 8 -7 13 7 11 -27 100 -38 100 -4 0 -6 4 -3 9 6 9 -91 271 -142 383 -17 37
-29 68 -27 70 1 2 5 17 8 35 6 31 5 32 -19 23 -31 -12 -61 2 -96 45 -31 38
-78 123 -78 141 0 8 -8 14 -18 14 -29 0 -71 55 -103 134 -17 39 -39 80 -51 91
l-21 20 21 -35z m-335 -1335 c-3 -9 -8 -14 -10 -11 -3 3 -2 9 2 15 9 16 15 13
8 -4z m-3 -45 c0 -5 -2 -10 -4 -10 -3 0 -8 5 -11 10 -3 6 -1 10 4 10 6 0 11
-4 11 -10z m-63 -160 c1 -11 -2 -22 -8 -25 -5 -4 -6 2 -2 11 5 13 3 15 -8 9
-12 -8 -12 -6 0 8 17 21 16 21 18 -3z m-31 -78 c-17 -16 -18 -16 -5 5 7 12 15
20 18 17 3 -2 -3 -12 -13 -22z m782 -66 c-12 -25 -29 -46 -37 -46 -11 0 -10 4
4 20 10 11 15 20 11 20 -4 0 2 10 14 22 11 12 20 26 20 32 0 5 2 7 5 4 3 -3
-4 -26 -17 -52z m-881 -192 c-3 -3 -12 -4 -19 -1 -8 3 -5 6 6 6 11 1 17 -2 13
-5z m-7 -18 c0 -3 -4 -8 -10 -11 -5 -3 -10 -1 -10 4 0 6 5 11 10 11 6 0 10 -2
10 -4z m-51 -87 c-31 -62 -188 -194 -203 -170 -10 16 3 35 39 60 19 13 32 27
30 31 -3 5 9 11 26 15 27 6 28 8 14 19 -15 11 -13 12 13 10 23 -1 32 4 41 22
6 13 15 24 21 24 5 0 10 6 10 13 0 8 6 14 13 14 10 0 9 -9 -4 -38z m-230 -183
c-8 -7 -30 -18 -49 -25 -32 -10 -33 -9 -16 4 11 8 27 15 37 15 9 0 20 7 23 16
4 9 9 14 13 10 4 -3 0 -13 -8 -20z"/>
<path d="M2173 8425 c-18 -8 -33 -11 -33 -7 0 3 -18 -11 -40 -33 -50 -49 -68
-103 -74 -225 -2 -52 -5 -95 -6 -95 -6 0 -7 -56 -1 -60 15 -8 30 39 35 110 2
39 10 87 16 108 16 54 76 116 137 143 55 25 61 43 22 64 -21 12 -17 12 -56 -5z"/>
<path d="M13793 8036 c-11 -34 -10 -34 13 -24 25 12 28 17 18 42 -10 25 -20
19 -31 -18z"/>
<path d="M453 7412 c-18 -9 -33 -19 -33 -24 0 -11 73 -43 120 -53 l33 -7 -25
43 c-31 52 -53 61 -95 41z"/>
</g>
</svg>
